<mxfile host="app.diagrams.net" modified="2020-10-11T01:46:23.180Z" agent="5.0 (Windows NT 10.0; Win64; x64) AppleWebKit/537.36 (KHTML, like Gecko) Chrome/85.0.4183.76 Safari/537.36 Edg/85.0.564.40" etag="mzFEyhrzkTcAr8mJOftm" version="13.7.5" type="github">
  <diagram id="bG9Ah5Db7zzR3B9StxCd" name="第 1 页">
    <mxGraphModel dx="1784" dy="886" grid="1" gridSize="10" guides="1" tooltips="1" connect="1" arrows="1" fold="1" page="1" pageScale="1" pageWidth="827" pageHeight="1169" math="0" shadow="0">
      <root>
        <mxCell id="0" />
        <mxCell id="1" parent="0" />
        <mxCell id="InyQM3sEfoP8-OmRKPYB-16" style="edgeStyle=orthogonalEdgeStyle;rounded=0;orthogonalLoop=1;jettySize=auto;html=1;entryX=0.5;entryY=0;entryDx=0;entryDy=0;" edge="1" parent="1" source="InyQM3sEfoP8-OmRKPYB-1" target="InyQM3sEfoP8-OmRKPYB-11">
          <mxGeometry relative="1" as="geometry" />
        </mxCell>
        <mxCell id="InyQM3sEfoP8-OmRKPYB-1" value="开始" style="rhombus;whiteSpace=wrap;html=1;" vertex="1" parent="1">
          <mxGeometry x="435" y="150" width="80" height="80" as="geometry" />
        </mxCell>
        <mxCell id="InyQM3sEfoP8-OmRKPYB-13" style="edgeStyle=orthogonalEdgeStyle;rounded=0;orthogonalLoop=1;jettySize=auto;html=1;exitX=1;exitY=0.5;exitDx=0;exitDy=0;exitPerimeter=0;" edge="1" parent="1" source="InyQM3sEfoP8-OmRKPYB-7" target="InyQM3sEfoP8-OmRKPYB-9">
          <mxGeometry relative="1" as="geometry" />
        </mxCell>
        <mxCell id="InyQM3sEfoP8-OmRKPYB-14" style="edgeStyle=orthogonalEdgeStyle;rounded=0;orthogonalLoop=1;jettySize=auto;html=1;exitX=0.5;exitY=1;exitDx=0;exitDy=0;exitPerimeter=0;" edge="1" parent="1" source="InyQM3sEfoP8-OmRKPYB-7" target="InyQM3sEfoP8-OmRKPYB-10">
          <mxGeometry relative="1" as="geometry" />
        </mxCell>
        <mxCell id="InyQM3sEfoP8-OmRKPYB-7" value="第i个皇后在这一行是否有合适的位置？" style="strokeWidth=2;html=1;shape=mxgraph.flowchart.decision;whiteSpace=wrap;" vertex="1" parent="1">
          <mxGeometry x="390" y="400" width="170" height="130" as="geometry" />
        </mxCell>
        <mxCell id="InyQM3sEfoP8-OmRKPYB-22" style="edgeStyle=orthogonalEdgeStyle;rounded=0;orthogonalLoop=1;jettySize=auto;html=1;entryX=0.5;entryY=0;entryDx=0;entryDy=0;entryPerimeter=0;" edge="1" parent="1" source="InyQM3sEfoP8-OmRKPYB-9" target="InyQM3sEfoP8-OmRKPYB-7">
          <mxGeometry relative="1" as="geometry">
            <mxPoint x="580" y="370" as="targetPoint" />
            <Array as="points">
              <mxPoint x="1010" y="465" />
              <mxPoint x="1010" y="400" />
            </Array>
          </mxGeometry>
        </mxCell>
        <mxCell id="InyQM3sEfoP8-OmRKPYB-9" value="回溯到上一行，i--" style="rounded=1;whiteSpace=wrap;html=1;absoluteArcSize=1;arcSize=14;strokeWidth=2;" vertex="1" parent="1">
          <mxGeometry x="755" y="450" width="120" height="30" as="geometry" />
        </mxCell>
        <mxCell id="InyQM3sEfoP8-OmRKPYB-18" style="edgeStyle=orthogonalEdgeStyle;rounded=0;orthogonalLoop=1;jettySize=auto;html=1;entryX=0.5;entryY=0;entryDx=0;entryDy=0;entryPerimeter=0;" edge="1" parent="1" source="InyQM3sEfoP8-OmRKPYB-10" target="InyQM3sEfoP8-OmRKPYB-17">
          <mxGeometry relative="1" as="geometry" />
        </mxCell>
        <mxCell id="InyQM3sEfoP8-OmRKPYB-10" value="到下一行，i++" style="rounded=1;whiteSpace=wrap;html=1;absoluteArcSize=1;arcSize=14;strokeWidth=2;" vertex="1" parent="1">
          <mxGeometry x="415" y="680" width="120" height="30" as="geometry" />
        </mxCell>
        <mxCell id="InyQM3sEfoP8-OmRKPYB-15" style="edgeStyle=orthogonalEdgeStyle;rounded=0;orthogonalLoop=1;jettySize=auto;html=1;exitX=0.5;exitY=1;exitDx=0;exitDy=0;" edge="1" parent="1" source="InyQM3sEfoP8-OmRKPYB-11" target="InyQM3sEfoP8-OmRKPYB-7">
          <mxGeometry relative="1" as="geometry" />
        </mxCell>
        <mxCell id="InyQM3sEfoP8-OmRKPYB-11" value="&lt;span&gt;i=0&lt;/span&gt;" style="rounded=1;whiteSpace=wrap;html=1;absoluteArcSize=1;arcSize=14;strokeWidth=2;" vertex="1" parent="1">
          <mxGeometry x="420" y="280" width="110" height="30" as="geometry" />
        </mxCell>
        <mxCell id="InyQM3sEfoP8-OmRKPYB-20" value="" style="edgeStyle=orthogonalEdgeStyle;rounded=0;orthogonalLoop=1;jettySize=auto;html=1;" edge="1" parent="1" source="InyQM3sEfoP8-OmRKPYB-17" target="InyQM3sEfoP8-OmRKPYB-19">
          <mxGeometry relative="1" as="geometry" />
        </mxCell>
        <mxCell id="InyQM3sEfoP8-OmRKPYB-21" style="edgeStyle=orthogonalEdgeStyle;rounded=0;orthogonalLoop=1;jettySize=auto;html=1;entryX=0;entryY=0.5;entryDx=0;entryDy=0;entryPerimeter=0;" edge="1" parent="1" source="InyQM3sEfoP8-OmRKPYB-17" target="InyQM3sEfoP8-OmRKPYB-7">
          <mxGeometry relative="1" as="geometry">
            <mxPoint x="220" y="450" as="targetPoint" />
            <Array as="points">
              <mxPoint x="260" y="860" />
              <mxPoint x="260" y="465" />
            </Array>
          </mxGeometry>
        </mxCell>
        <mxCell id="InyQM3sEfoP8-OmRKPYB-17" value="i=4？" style="strokeWidth=2;html=1;shape=mxgraph.flowchart.decision;whiteSpace=wrap;" vertex="1" parent="1">
          <mxGeometry x="425" y="810" width="100" height="100" as="geometry" />
        </mxCell>
        <mxCell id="InyQM3sEfoP8-OmRKPYB-19" value="四皇后位置全部找出" style="whiteSpace=wrap;html=1;strokeWidth=2;" vertex="1" parent="1">
          <mxGeometry x="415" y="1010" width="120" height="60" as="geometry" />
        </mxCell>
      </root>
    </mxGraphModel>
  </diagram>
</mxfile>
